<svg width="112" height="40" fill="none" xmlns="http://www.w3.org/2000/svg"><circle cx="20" cy="20" r="20" fill="#FF7235"/><path d="M18.176 26h-3.792l4.344-6.096-4.08-6.072h3.888l1.968 3.624 2.184-3.624h3.84l-4.368 6.096L26.216 26H22.4l-2.04-3.648L18.176 26Z" fill="#fff"/><path d="M55.841 29.462h-2.254V13.339h2.254v1.794c.7973-1.3033 1.9933-1.955 3.588-1.955 1.5333 0 2.7447.5597 3.634 1.679.8893 1.104 1.334 2.5147 1.334 4.232 0 1.7633-.46 3.22-1.38 4.37-.9047 1.1347-2.116 1.702-3.634 1.702-1.5487 0-2.7293-.644-3.542-1.932v6.233Zm0-10.327c0 1.3493.3143 2.3613.943 3.036.644.6747 1.3723 1.012 2.185 1.012.9047 0 1.6483-.3527 2.231-1.058.5827-.7207.874-1.725.874-3.013 0-1.2113-.2837-2.1697-.851-2.875-.5673-.7207-1.288-1.081-2.162-1.081-.874 0-1.633.322-2.277.966-.6287.6287-.943 1.633-.943 3.013Zm19.7818 5.244c-.8587.4907-1.9933.736-3.404.736-1.8093 0-3.2507-.5443-4.324-1.633-1.0733-1.0887-1.61-2.5147-1.61-4.278 0-1.8707.4907-3.335 1.472-4.393.9813-1.0733 2.231-1.61 3.749-1.61 1.4873 0 2.668.4677 3.542 1.403.874.92 1.311 2.254 1.311 4.002 0 .4753-.046.9737-.138 1.495h-7.659c.1533 1.012.5827 1.7863 1.288 2.323s1.5947.805 2.668.805c1.242 0 2.277-.2913 3.105-.874v2.024Zm-4.071-9.315c-.7667 0-1.426.2837-1.978.851-.552.552-.897 1.357-1.035 2.415h5.635v-.414c-.0307-.874-.2683-1.564-.713-2.07-.4447-.5213-1.081-.782-1.909-.782ZM88.6498 25h-2.254v-7.36c0-.8127-.207-1.4337-.621-1.863-.3987-.4293-.9354-.644-1.61-.644-.7974 0-1.4797.3143-2.047.943-.5674.6133-.851 1.4797-.851 2.599V25h-2.254V13.339h2.254v2.001c.69-1.4413 1.9013-2.162 3.634-2.162 1.15 0 2.0623.3527 2.737 1.058.6746.7053 1.012 1.6637 1.012 2.875V25Zm10.322-3.22c0 1.0427-.368 1.863-1.104 2.461-.736.5827-1.7327.874-2.99.874-1.38 0-2.53-.23-3.45-.69v-2.139c1.0733.6593 2.185.989 3.335.989.598 0 1.058-.1227 1.38-.368.3373-.2453.506-.5673.506-.966 0-.3373-.1304-.6363-.391-.897-.2607-.276-.529-.4753-.805-.598-.2607-.138-.713-.345-1.357-.621-1.8247-.7513-2.737-1.8553-2.737-3.312 0-1.0273.3833-1.8323 1.15-2.415.7666-.5827 1.725-.874 2.875-.874 1.2573 0 2.2386.1687 2.944.506v2.047c-.7514-.4447-1.7174-.667-2.898-.667-.5367 0-.966.1227-1.288.368-.3067.2453-.46.5673-.46.966 0 .1073.0076.2147.023.322.0306.092.0766.1917.138.299.0613.092.115.1763.161.253.0613.0613.1533.1303.276.207.1226.0767.2146.1457.276.207.0766.046.1916.1073.345.184.1686.0767.2913.138.368.184.0766.0307.207.092.391.184.1993.0767.3373.1303.414.161.9046.3987 1.61.851 2.116 1.357.5213.4907.782 1.15.782 1.978Zm11.0382 2.599c-.858.4907-1.993.736-3.404.736-1.809 0-3.25-.5443-4.324-1.633-1.073-1.0887-1.61-2.5147-1.61-4.278 0-1.8707.491-3.335 1.472-4.393.982-1.0733 2.231-1.61 3.749-1.61 1.488 0 2.668.4677 3.542 1.403.874.92 1.311 2.254 1.311 4.002 0 .4753-.046.9737-.138 1.495h-7.659c.154 1.012.583 1.7863 1.288 2.323.706.5367 1.595.805 2.668.805 1.242 0 2.277-.2913 3.105-.874v2.024Zm-4.071-9.315c-.766 0-1.426.2837-1.978.851-.552.552-.897 1.357-1.035 2.415h5.635v-.414c-.03-.874-.268-1.564-.713-2.07-.444-.5213-1.081-.782-1.909-.782Z" fill="#292830"/></svg>